{"title":"Trainspotting[x264][MP3(@160Kbps)] Multi_sub.mkv","uid":5257894,"size":986941952,"categoryP":"video","categoryS":"movies","magnet":"?xt=urn:btih:50d4611ea41be9abec48779c8749e774747468ef&amp;dn=Trainspotting%5Bx264%5D%5BMP3%28%40160Kbps%29%5D+Multi_sub.mkv&amp;tr=udp%3A%2F%2Ftracker.openbittorrent.com%3A80&amp;tr=udp%3A%2F%2Fopen.demonii.com%3A1337&amp;tr=udp%3A%2F%2Ftracker.coppersurfer.tk%3A6969&amp;tr=udp%3A%2F%2Fexodus.desync.com%3A6969","seeders":0,"leechers":1,"uploader":"Zen_Bud","files":-1,"time":1262632458,"description":"General\nComplete name                    : Trainspotting.mkv\nFormat                           : Matroska\nFile size                        : 941 MiB\nDuration                         : 1h 29mn\nOverall bit rate                 : 1 467 Kbps\n\n\nVideo\nID                               : 1\nFormat                           : AVC\nDuration                         : 1h 29mn\nBit rate                         : 1 278 Kbps\nWidth                            : 720 pixels\nHeight                           : 552 pixels\nDisplay aspect ratio             : 1.855\nFrame rate                       : 25.000 fps\nResolution                       : 8 bits\nColorimetry                      : 4:2:0\nScan type                        : Progressive\nBits/(Pixel*Frame)               : 0.129\nStream size                      : 820 MiB (87%)\nWriting library                  : x264 core 79\n\nAudio\nID                               : 2\nFormat                           : MPEG Audio\nFormat version                   : Version 1\nFormat profile                   : Layer 3\nMode                             : Joint stereo / MS Stereo\nCodec ID                         : A_MPEG/L3\nCodec ID/Hint                    : MP3\nDuration                         : 1h 29mn\nBit rate mode                    : Constant\nBit rate                         : 160 Kbps\nChannel(s)                       : 2 channels\nSampling rate                    : 48.0 KHz\nStream size                      : 103 MiB (11%)\nLanguage                         : English\n\nText #1\nLanguage                         : Danish\n\nText #2\nLanguage                         : Finnish\n\nText #3\nLanguage                         : Swedish\n\nText #4\nLanguage                         : Icelandic\n\nText #5\nLanguage                         : Norwegian\n\n\n\n","torrent":{"xt":"urn:btih:50d4611ea41be9abec48779c8749e774747468ef","amp;dn":"Trainspotting%5Bx264%5D%5BMP3%28%40160Kbps%29%5D+Multi_sub.mkv","amp;tr":["udp%3A%2F%2Ftracker.openbittorrent.com%3A80","udp%3A%2F%2Fopen.demonii.com%3A1337","udp%3A%2F%2Ftracker.coppersurfer.tk%3A6969","udp%3A%2F%2Fexodus.desync.com%3A6969"],"infoHash":"50d4611ea41be9abec48779c8749e774747468ef","infoHashBuffer":{"type":"Buffer","data":[80,212,97,30,164,27,233,171,236,72,119,156,135,73,231,116,116,116,104,239]},"announce":[],"urlList":[]}}